<svg width="273" height="200" viewBox="0 0 273 200" fill="none" xmlns="http://www.w3.org/2000/svg">
<path d="M199.528 38.9311C199.707 38.9326 199.887 38.9341 200.232 39.1186C200.702 39.3429 201.006 39.3843 201.311 39.4256C201.665 39.5541 202.02 39.6827 202.469 40.0115C202.832 40.3287 203.1 40.4458 203.368 40.5628C203.703 40.8202 204.039 41.0775 204.393 41.5571C204.632 41.9809 204.851 42.1824 205.069 42.3839C205.198 42.5485 205.327 42.7131 205.364 43.0601C205.555 43.8947 205.837 44.5469 206.119 45.199C206.159 48.8359 206.233 52.4728 206.233 56.1097C206.231 76.959 206.211 97.8082 206.025 118.849C205.483 120.078 205.114 121.116 204.746 122.153C204.746 122.153 204.751 122.161 204.627 122.172C204.387 122.452 204.271 122.721 204.154 122.99C204.35 122.956 204.546 122.922 204.742 122.888C205.872 122.934 207.002 122.979 208.351 123.188C209.391 123.333 210.211 123.316 211.031 123.298C211.8 123.335 212.569 123.371 213.532 123.556C214.063 123.69 214.4 123.676 214.737 123.661C215.781 123.83 216.824 123.999 217.979 124.362C217.72 124.954 217.349 125.351 216.979 125.748C216.698 125.831 216.418 125.914 215.927 125.898C215.395 125.903 215.074 126.007 214.752 126.111C214.354 126.198 213.955 126.284 213.329 126.263C212.662 126.266 212.224 126.378 211.785 126.489C211.264 126.571 210.744 126.652 209.976 126.615C209.054 126.609 208.379 126.722 207.705 126.835C206.819 126.921 205.933 127.008 204.777 126.968C203.471 126.96 202.435 127.08 201.399 127.2C200.145 127.286 198.891 127.372 197.354 127.324C195.052 127.305 193.033 127.421 191.013 127.537C188.154 127.629 185.294 127.72 182.148 127.676C178.292 127.513 174.723 127.475 171.154 127.478C170.849 127.478 170.546 127.755 170.242 127.903C169.879 127.95 169.516 128.037 169.153 128.037C147.007 128.033 124.861 128.022 102.482 127.843C100.354 127.599 98.4584 127.461 96.5637 127.47C94.6764 127.479 92.7899 127.635 90.903 127.727C87.9076 127.702 84.9121 127.677 81.6773 127.477C79.5235 127.326 77.609 127.351 75.6945 127.376C74.1899 127.355 72.6853 127.333 70.9543 127.142C69.5389 126.992 68.3497 127.012 67.1605 127.032C66.1475 127.008 65.1345 126.984 63.9149 126.796C63.1279 126.648 62.5475 126.664 61.9672 126.68C61.4409 126.666 60.9146 126.653 60.2037 126.474C59.5561 126.314 59.093 126.318 58.6299 126.323C58.2203 126.304 57.8107 126.284 57.2405 126.108C56.8534 125.962 56.6269 125.972 56.4004 125.982C55.5241 125.739 54.6477 125.496 53.8673 125.083C54.4005 124.674 54.8377 124.434 55.2749 124.194C55.4396 124.121 55.6044 124.048 55.9714 124.069C56.4925 124.058 56.8112 123.954 57.1299 123.85C57.5298 123.763 57.9298 123.676 58.5577 123.697C59.2229 123.703 59.6601 123.599 60.0973 123.495C60.8597 123.398 61.622 123.3 62.642 123.329C63.6965 123.349 64.4934 123.243 65.2903 123.138C66.5424 123.046 67.7944 122.954 69.2889 122.968C69.7099 122.93 69.8886 122.785 70.0673 122.641C69.8579 122.48 69.6486 122.319 69.4392 122.159C68.9396 120.81 68.0091 119.462 68.0047 118.112C67.9323 95.7165 67.9754 73.3208 67.9995 50.9252C68 50.5165 68.0837 50.1078 68.3211 49.5854C68.8973 50.1156 69.2364 50.7888 69.6773 51.395C70.0845 51.9549 70.6007 52.443 71.1047 53.1107C71.1174 53.863 71.0945 54.4673 70.9472 55.0766C70.6077 55.2978 70.3926 55.514 70.1775 55.7302C70.4802 55.868 70.7829 56.0059 71.1933 56.2673C71.9085 56.4451 72.5159 56.5467 73.1233 56.5468C85.5358 56.55 97.9482 56.5369 110.361 56.5395C112.642 56.54 114.923 56.5947 117.196 56.762C116.648 57.1165 116.125 57.4681 115.568 57.5251C113.851 57.7007 112.122 57.7639 110.309 57.8762C110.564 58.5817 110.73 59.0398 110.728 59.5392C97.4378 59.5878 84.315 59.595 71.1402 59.4948C70.7247 59.1696 70.3611 58.9519 69.9976 58.7341C69.8422 59.1482 69.5744 59.5575 69.5551 59.9772C69.5153 60.8403 69.9034 61.8203 69.597 62.5566C68.0505 66.2728 69.4777 69.7937 70.1906 73.3613C70.229 73.5533 70.7708 73.6542 71.1127 73.9581C71.1237 75.6549 71.1002 77.1911 70.9358 78.7361C70.5765 78.9157 70.1896 79.0671 70.1653 79.2598C69.8672 81.6288 69.4336 84.0019 69.4068 86.3777C69.3653 90.0587 69.5937 93.7431 69.7406 97.4249C69.8314 99.7001 69.9449 101.976 70.1479 104.244C70.1791 104.592 70.7486 104.896 71.1109 105.371C71.154 106.242 71.1553 106.963 71.0067 107.69C70.6072 108.025 70.167 108.34 70.1388 108.685C69.9543 110.943 69.826 113.207 69.7509 115.47C69.721 116.374 69.5962 117.437 71.0725 117.721C71.7165 119.104 72.1119 120.504 72.9738 121.558C74.1791 123.032 76.0214 123.314 77.9808 123.303C90.3152 123.234 102.65 123.237 115.093 123.321C118.204 123.476 121.207 123.55 124.21 123.555C124.969 123.556 125.728 123.334 126.609 123.19C126.896 123.182 127.061 123.199 127.304 123.308C127.949 123.321 128.514 123.242 129.214 123.101C133.702 122.132 135.368 118.665 134.346 113.434C134.496 109.536 134.587 105.787 134.819 102.042C135.332 102.514 135.939 102.943 136.033 103.457C136.401 105.462 136.559 107.502 136.906 109.512C136.99 110 137.496 110.422 137.846 111.035C137.891 113.119 137.902 115.042 137.906 116.965C137.912 120.257 139.225 122.054 142.467 123.222C142.725 123.274 142.949 123.251 143.346 123.21C151.988 123.19 160.456 123.18 168.924 123.188C178.319 123.196 187.714 123.235 197.11 123.229C200.476 123.227 203.133 121.192 203.167 118.234C203.267 109.766 203.168 101.295 203.173 92.6644C203.206 79.8265 203.215 67.1503 203.237 54.3251C202.997 53.5884 202.767 52.9903 202.482 52.4167C202.292 52.0338 202.024 51.6858 201.942 51.2851C202.454 51.0204 203.121 50.7982 203.126 50.5639C203.164 48.6914 203.29 46.7823 202.967 44.9521C202.642 43.1144 200.594 41.7828 198.615 41.697C197.569 41.6517 196.519 41.6615 195.361 41.5437C194.95 41.3968 194.649 41.314 194.348 41.3139C177.4 41.3082 160.453 41.3054 143.505 41.3295C143.021 41.3302 142.537 41.624 141.927 41.8409C140.894 42.4064 139.986 42.9122 138.976 43.3777C138.629 43.3531 138.384 43.3688 138.139 43.3846C138.349 43.5204 138.56 43.6561 138.739 43.9177C138.427 44.7773 138.147 45.5111 137.733 46.2495C136.769 46.1515 135.85 46.2299 135.125 45.9111C133.206 45.0683 130.639 45.1975 129.643 46.3986C125.889 46.4126 122.3 46.3768 118.692 46.2143C117.353 45.198 115.699 45.3212 114.807 46.4132C104.109 46.4825 93.5762 46.4915 83.0434 46.5283C79.9664 46.5391 76.8896 46.6289 73.8133 46.5198C73.812 45.493 73.81 44.6287 73.808 43.7644C74.468 43.6643 75.1279 43.4775 75.7881 43.4766C93.8821 43.4538 111.976 43.4491 130.07 43.4471C130.5 43.447 130.93 43.511 131.573 43.728C132.09 43.9421 132.394 43.9733 132.699 44.0045C133.167 44.1716 133.636 44.3386 134.226 44.7123C135.201 45.3994 135.398 45.0235 135.299 44.2598C135.824 41.877 137.501 40.4412 139.931 39.4571C140.437 39.3589 140.7 39.227 140.963 39.095C141.623 39.0007 142.281 38.8255 142.941 38.8243C151.199 38.8088 159.457 38.8186 167.998 38.9607C169.921 39.0366 171.559 38.9736 173.198 38.9106C175.822 38.8812 178.445 38.8517 181.353 38.9614C187.379 39.1306 193.121 39.1636 198.863 39.1797C199.084 39.1803 199.306 39.0177 199.528 38.9311ZM136.28 123.57C136.578 123.42 136.877 123.27 137.175 123.12C136.765 122.541 136.354 121.961 135.799 121.178C135.013 122.35 133.692 123.225 136.28 123.57Z" fill="#020201"/>
<path d="M43.7879 157.146C43.6137 156.4 43.4655 155.795 43.3172 155.19C43.2086 155.186 43.1001 155.181 42.9915 155.177C42.2648 158.741 41.54 162.305 40.8102 165.869C40.5504 167.138 40.2547 168.4 40.0182 169.673C39.7633 171.045 38.9005 171.649 37.4768 171.777C31.4364 172.321 31.0483 172.082 29.7839 166.557C28.0366 158.921 26.3056 151.282 24.5748 143.643C23.9178 140.743 24.4075 140.166 27.5048 140.138C31.2358 140.105 31.2841 140.134 32.0137 143.543C33.1346 148.781 34.2428 154.022 35.4526 159.714C35.7207 158.939 35.8983 158.56 35.9823 158.163C37.0667 153.036 38.1278 147.904 39.2166 142.777C39.7013 140.495 40.1224 140.187 42.5675 140.158C43.0617 140.152 43.5561 140.146 44.0503 140.15C46.368 140.166 46.9771 140.637 47.4327 142.803C48.5837 148.276 49.7266 153.75 51.1564 159.262C51.7719 156.456 52.3828 153.649 53.004 150.845C53.6153 148.085 54.2885 145.336 54.8351 142.565C55.1761 140.836 56.0529 140.084 57.9826 140.107C62.5189 140.161 62.8167 140.434 61.8427 144.683C59.9738 152.835 58.1018 160.986 56.2251 169.137C55.714 171.356 55.197 171.77 52.8481 171.798C46.3453 171.875 47.054 171.962 45.9052 166.595C45.2397 163.486 44.513 160.389 43.7879 157.146Z" fill="#438F89"/>
<path d="M167.548 147.932C167.552 146.051 167.568 144.346 167.554 142.641C167.541 141.064 168.333 140.178 169.994 140.168C174.317 140.143 178.645 140.054 182.962 140.212C186.72 140.348 189.537 143.237 189.567 146.818C189.62 152.874 189.611 158.93 189.541 164.985C189.5 168.494 187.008 171.335 183.365 171.573C178.815 171.872 174.234 171.815 169.668 171.766C167.887 171.747 167.405 170.478 167.421 168.917C167.49 161.981 167.51 155.044 167.548 147.932ZM182.526 153.056C182.534 151.59 182.709 150.099 182.475 148.668C182.369 148.017 181.507 147.045 180.897 146.979C178.907 146.764 176.875 146.899 174.778 146.899C174.778 152.968 174.778 158.846 174.778 164.88C176.565 164.88 178.217 164.899 179.868 164.876C181.982 164.846 182.501 164.364 182.516 162.382C182.537 159.391 182.523 156.4 182.526 153.056Z" fill="#438F8A"/>
<path d="M140.468 150.406C140.469 156.582 140.471 162.582 140.471 168.582C140.47 169.767 140.593 171.31 139.142 171.546C137.459 171.82 135.636 171.557 133.927 171.253C133.557 171.187 133.223 169.956 133.206 169.254C133.129 166.096 133.172 162.936 133.172 159.657C130.411 159.657 127.852 159.657 125.017 159.657C125.017 162.752 125.026 165.79 125.014 168.829C125.003 171.359 124.552 171.812 122.11 171.819C118.528 171.83 118.026 171.479 118.019 168.811C117.997 160.223 117.99 151.635 117.988 143.048C117.987 140.721 118.584 140.179 121.079 140.157C121.573 140.153 122.069 140.173 122.562 140.151C124.279 140.071 125.069 140.869 125.067 142.476C125.064 145.299 125.129 148.123 125.064 150.945C125.037 152.138 125.388 152.642 126.723 152.584C128.754 152.495 130.792 152.561 133.197 152.561C133.197 151.447 133.195 150.421 133.198 149.396C133.203 147.102 133.232 144.808 133.212 142.514C133.198 141.007 133.893 140.248 135.513 140.146C140.113 139.856 140.46 140.142 140.472 144.583C140.476 146.465 140.47 148.347 140.468 150.406Z" fill="#45918C"/>
<path d="M101.043 164.918C102.511 164.917 103.811 164.95 105.106 164.897C105.954 164.862 107.169 165.254 107.231 163.873C107.285 162.655 107.832 161.204 106.06 160.531C103.708 159.638 101.348 158.761 99.013 157.828C97.9918 157.42 96.82 157.084 96.0801 156.373C95.0369 155.37 93.7766 154.12 93.5965 152.849C93.2203 150.195 93.3014 147.441 93.5506 144.759C93.7806 142.281 96.1899 140.326 98.94 140.213C102.147 140.081 105.37 140.069 108.576 140.206C111.915 140.349 114.139 142.69 114.219 145.849C114.24 146.672 114.24 147.496 114.224 148.32C114.184 150.368 113.519 151.075 111.569 151.168C108.509 151.315 107.283 150.62 107.152 148.487C107.081 147.345 106.583 146.894 105.438 146.935C104.697 146.961 103.939 146.853 103.218 146.97C102.246 147.127 100.838 146.344 100.438 147.897C99.8837 150.051 100.39 151.026 102.391 151.775C105.035 152.766 107.693 153.724 110.356 154.669C113.181 155.672 114.631 157.498 114.462 160.453C114.354 162.33 114.508 164.221 114.385 166.096C114.192 169.04 112.174 171.357 109.122 171.59C105.442 171.871 101.71 171.891 98.0254 171.661C95.031 171.473 93.0612 169.157 92.8822 166.3C92.8308 165.479 92.8592 164.653 92.8744 163.83C92.9135 161.704 93.5451 161.066 95.6868 160.963C98.4841 160.828 99.4823 161.498 99.8659 163.562C99.9574 164.054 100.525 164.466 101.043 164.918Z" fill="#44908B"/>
<path d="M77.876 165.65C77.6325 165.65 77.5707 165.649 77.509 165.65C75.845 165.678 73.8178 165.169 72.6264 165.898C71.5837 166.536 71.4186 168.548 70.9796 169.984C70.5318 171.45 69.4878 171.813 68.0356 171.833C63.6157 171.894 63.1935 171.443 64.3833 167.415C66.805 159.218 69.2597 151.029 71.7156 142.841C72.4222 140.486 72.9349 140.143 75.5129 140.131C75.8833 140.13 76.2538 140.135 76.6242 140.135C82.1351 140.126 81.7639 139.867 83.2466 144.882C85.5199 152.57 87.8536 160.242 90.1571 167.922C90.8639 170.279 90.5294 171.258 88.8999 171.677C85.8504 172.46 84.0814 171.773 83.3921 169.537C83.3747 169.481 83.3644 169.422 83.3473 169.366C82.2271 165.673 82.227 165.673 77.876 165.65ZM76.6707 159.444C77.8086 159.444 78.9465 159.444 80.3872 159.444C79.3202 155.895 78.3531 152.678 77.386 149.461C77.243 149.456 77.1001 149.45 76.9571 149.445C76.0231 152.663 75.0891 155.881 74.0948 159.306C75.0224 159.362 75.6784 159.401 76.6707 159.444Z" fill="#438E8A"/>
<path d="M209.997 164.917C214.75 164.869 214.789 165.581 214.755 160.501C214.717 154.858 214.759 149.215 214.768 143.573C214.772 140.513 215.126 140.186 218.427 140.179C218.797 140.179 219.168 140.172 219.538 140.182C221.01 140.222 221.882 140.911 221.884 142.344C221.895 150.279 221.931 158.214 221.844 166.148C221.814 168.89 219.615 171.321 216.695 171.56C213.083 171.856 209.411 171.936 205.8 171.678C202.314 171.429 199.965 168.665 199.937 165.253C199.876 157.671 199.917 150.089 199.896 142.506C199.892 140.968 200.669 140.23 202.252 140.2C202.314 140.199 202.376 140.2 202.438 140.198C207.646 140.065 207.046 140.697 207.027 144.365C206.997 150.36 207.016 156.355 207.028 162.35C207.033 164.704 207.294 164.928 209.997 164.917Z" fill="#698CC0"/>
<path d="M144.021 149.347C144.035 147.053 144 144.934 144.077 142.818C144.147 140.902 144.959 140.161 146.968 140.152C151.912 140.129 156.856 140.163 161.801 140.151C163.461 140.147 164.28 140.785 164.307 142.466C164.379 146.864 164.372 146.909 159.813 146.898C157.049 146.891 154.285 146.897 151.418 146.897C151.418 148.758 151.418 150.44 151.418 152.461C153.679 152.461 155.931 152.461 158.182 152.46C159.409 152.46 161.054 152.194 161.333 153.61C161.647 155.207 161.417 156.955 161.089 158.576C161.007 158.979 159.645 159.348 158.855 159.382C156.456 159.487 154.048 159.42 151.498 159.42C151.498 161.287 151.498 163.006 151.498 164.942C154.696 164.942 157.835 164.847 160.961 164.995C161.994 165.044 163.757 165.586 163.865 166.137C164.176 167.726 163.904 169.448 163.636 171.084C163.586 171.388 162.488 171.717 161.87 171.726C156.803 171.796 151.734 171.822 146.667 171.798C144.743 171.788 144.053 171.005 144.045 168.937C144.018 162.466 144.026 155.995 144.021 149.347Z" fill="#45908B"/>
<path d="M224.776 160.998C224.779 154.997 224.775 149.172 224.789 143.347C224.794 140.893 225.511 140.21 228.104 140.196C231.751 140.175 235.398 140.157 239.045 140.19C243.416 140.23 246.417 142.961 246.561 147.104C246.659 149.925 246.649 152.753 246.573 155.575C246.466 159.515 243.321 162.408 239.188 162.471C237.581 162.495 235.974 162.489 234.367 162.494C231.904 162.502 231.906 162.501 231.912 164.932C231.915 166.461 231.869 167.992 231.919 169.52C231.968 171.009 231.169 171.688 229.71 171.781C228.91 171.832 228.104 171.832 227.302 171.813C225.592 171.775 224.688 171.022 224.727 169.294C224.788 166.589 224.764 163.881 224.776 160.998ZM236.761 146.918C235.183 146.918 233.606 146.918 232.03 146.918C232.03 149.965 232.03 152.745 232.03 155.666C233.916 155.666 235.639 155.659 237.363 155.668C238.676 155.675 239.278 155.045 239.274 153.817C239.268 152.23 239.197 150.636 239.311 149.056C239.427 147.459 238.841 146.7 236.761 146.918Z" fill="#688BBF"/>
<path d="M56.3405 35.1797C59.4346 35.4135 61.479 36.8412 62.4418 39.4864C63.325 41.9128 62.7767 44.1497 60.9017 45.9998C59.0196 47.857 56.709 48.4095 54.1136 47.6367C51.0872 46.7355 49.2415 43.8553 49.6275 40.7357C50.0214 37.5523 52.5202 35.4358 56.3405 35.1797ZM59.39 43.1259C60.151 41.0676 59.5801 39.3793 57.8185 38.4782C56.2806 37.6916 54.8795 38.0075 53.4102 39.5339C52.0872 41.4276 52.4842 43.3534 54.4574 44.6151C56.0865 45.6566 57.8902 45.1982 59.39 43.1259Z" fill="#0C0F0F"/>
<path d="M83.3672 34.7802C81.7819 37.5664 79.4091 38.69 76.7887 38.0001C74.1573 37.3073 72.1963 34.8273 72.3397 32.3735C72.488 29.8354 74.3527 27.7646 76.9312 27.2926C81.1357 26.5229 85.0267 30.5099 83.3672 34.7802ZM80.2421 34.0186C81.359 32.6423 80.866 31.424 79.6056 30.5491C78.5004 29.7819 77.2146 29.5549 76.0252 31.0497C74.9729 32.3463 75.0895 33.7306 76.3329 34.7016C77.5953 35.6876 78.9757 35.5194 80.2421 34.0186Z" fill="#0D0F0F"/>
<path d="M55.805 56.2668C58.5512 55.3512 60.8164 55.7978 62.3753 57.476C63.7619 58.9686 64.0755 61.2496 63.0823 63.0879C61.9978 65.095 60.2834 66.1903 57.8608 66.0976C55.7602 66.0173 53.7704 64.601 53.1229 62.6808C52.3963 60.5257 52.8732 58.6154 54.6369 57.0517C54.9501 56.7741 55.3335 56.5683 55.805 56.2668ZM60.3421 62.0154C61.0784 60.8078 60.7364 59.7254 59.7008 58.9282C58.682 58.1441 57.5641 58.1967 56.3882 59.299C55.4204 60.7332 55.5653 62.0029 56.9548 62.8203C58.1468 63.5214 59.3559 63.6165 60.3421 62.0154Z" fill="#0D0F0F"/>
<path d="M100.015 27.6047C101.79 28.9467 102.408 30.5715 101.807 32.5151C101.073 34.8908 98.4696 36.1455 96.1163 35.3368C93.6272 34.4814 92.3792 31.745 93.4261 29.4383C94.5328 26.9998 97.0946 26.2442 100.015 27.6047ZM98.4907 32.5206C99.6355 31.9685 99.5588 31.067 98.9076 30.3398C98.5312 29.9196 97.4339 29.5207 97.1301 29.7298C96.5982 30.0958 96.1204 30.9614 96.1737 31.5741C96.2651 32.6266 97.1528 32.9629 98.4907 32.5206Z" fill="#0D0F0F"/>
<path d="M73.671 43.7422C73.81 44.6287 73.812 45.493 73.7305 46.605C72.1637 47.5867 71.2997 48.7255 71.1844 50.3296C71.1215 51.2057 71.1059 52.0849 71.069 52.9628C70.6007 52.443 70.0845 51.9549 69.6772 51.395C69.2364 50.7888 68.8973 50.1156 68.3843 49.4506C68.6689 46.3991 70.5678 44.6125 73.671 43.7422Z" fill="#080808"/>
<path d="M199.398 38.8633C199.306 39.0177 199.084 39.1803 198.863 39.1797C193.121 39.1637 187.379 39.1306 181.523 39.0054C187.362 38.872 193.315 38.8337 199.398 38.8633Z" fill="#0C0E0F"/>
<path d="M170.406 127.961C170.546 127.755 170.849 127.478 171.154 127.478C174.723 127.475 178.292 127.513 181.977 127.634C178.252 127.825 174.411 127.922 170.406 127.961Z" fill="#0C0E0F"/>
<path d="M91.0375 127.785C92.7898 127.635 94.6764 127.479 96.5637 127.47C98.4583 127.461 100.354 127.599 102.318 127.786C98.6493 127.88 94.9106 127.862 91.0375 127.785Z" fill="#0C0E0F"/>
<path d="M191.178 127.592C193.033 127.421 195.052 127.305 197.187 127.283C195.315 127.467 193.329 127.557 191.178 127.592Z" fill="#0C0E0F"/>
<path d="M75.8278 127.436C77.609 127.351 79.5235 127.326 81.5367 127.42C79.744 127.525 77.8525 127.511 75.8278 127.436Z" fill="#0C0E0F"/>
<path d="M173.063 38.8565C171.559 38.9736 169.921 39.0366 168.169 39.005C169.68 38.8744 171.304 38.8384 173.063 38.8565Z" fill="#0C0E0F"/>
<path d="M67.291 127.094C68.3497 127.012 69.5389 126.992 70.7938 127.082C69.7136 127.18 68.5676 127.168 67.291 127.094Z" fill="#0C0E0F"/>
<path d="M201.552 127.251C202.435 127.08 203.471 126.96 204.613 126.929C203.714 127.113 202.709 127.207 201.552 127.251Z" fill="#0C0E0F"/>
<path d="M204.86 122.099C205.114 121.116 205.483 120.078 205.975 119.008C205.724 119.998 205.349 121.022 204.86 122.099Z" fill="#0C0E0F"/>
<path d="M217.099 125.781C217.349 125.351 217.72 124.954 218.095 124.442C218.447 124.464 218.793 124.602 219.645 124.939C218.511 125.348 217.866 125.581 217.099 125.781Z" fill="#0C0E0F"/>
<path d="M65.1475 123.09C64.4934 123.243 63.6965 123.349 62.8041 123.366C63.474 123.199 64.2394 123.121 65.1475 123.09Z" fill="#080808"/>
<path d="M210.906 123.236C210.211 123.316 209.391 123.333 208.508 123.247C209.224 123.155 210.002 123.165 210.906 123.236Z" fill="#0C0E0F"/>
<path d="M207.841 126.882C208.379 126.722 209.054 126.609 209.82 126.581C209.267 126.753 208.622 126.842 207.841 126.882Z" fill="#0C0E0F"/>
<path d="M206.148 45.0732C205.837 44.5469 205.555 43.8947 205.36 43.1658C205.69 43.7085 205.933 44.328 206.148 45.0732Z" fill="#0C0E0F"/>
<path d="M62.0831 126.745C62.5475 126.664 63.1279 126.648 63.7603 126.731C63.2745 126.823 62.7368 126.816 62.0831 126.745Z" fill="#0C0E0F"/>
<path d="M58.736 126.391C59.093 126.319 59.5561 126.314 60.061 126.407C59.6826 126.49 59.2623 126.475 58.736 126.391Z" fill="#0C0E0F"/>
<path d="M211.905 126.534C212.223 126.378 212.662 126.266 213.176 126.234C212.842 126.402 212.433 126.49 211.905 126.534Z" fill="#0C0E0F"/>
<path d="M59.9771 123.454C59.6601 123.599 59.2228 123.703 58.7106 123.728C59.0426 123.572 59.4497 123.493 59.9771 123.454Z" fill="#080808"/>
<path d="M55.1507 124.166C54.8377 124.434 54.4004 124.674 53.8535 124.952C54.1714 124.706 54.5989 124.422 55.1507 124.166Z" fill="#080808"/>
<path d="M135.187 44.363C135.398 45.0235 135.201 45.3994 134.305 44.8079C134.533 44.6201 134.804 44.5432 135.187 44.363Z" fill="#0C0E0F"/>
<path d="M69.4471 122.29C69.6485 122.319 69.8579 122.48 70.0673 122.641C69.8886 122.785 69.7099 122.93 69.4585 122.999C69.4089 122.756 69.432 122.589 69.4471 122.29Z" fill="#080808"/>
<path d="M204.737 122.766C204.546 122.922 204.35 122.956 204.154 122.99C204.271 122.721 204.387 122.452 204.623 122.17C204.739 122.32 204.735 122.482 204.737 122.766Z" fill="#0C0E0F"/>
<path d="M214.643 123.597C214.4 123.676 214.063 123.69 213.682 123.621C213.943 123.535 214.246 123.534 214.643 123.597Z" fill="#0C0E0F"/>
<path d="M57.0206 123.812C56.8111 123.954 56.4924 124.058 56.1089 124.09C56.3333 123.937 56.6223 123.856 57.0206 123.812Z" fill="#080808"/>
<path d="M214.861 126.153C215.074 126.007 215.395 125.903 215.78 125.873C215.552 126.029 215.261 126.111 214.861 126.153Z" fill="#0C0E0F"/>
<path d="M140.851 39.066C140.7 39.227 140.437 39.3589 140.054 39.4567C140.202 39.2941 140.471 39.1655 140.851 39.066Z" fill="#0C0E0F"/>
<path d="M201.24 39.3373C201.006 39.3842 200.702 39.3429 200.342 39.1977C200.581 39.1455 200.875 39.1973 201.24 39.3373Z" fill="#0C0E0F"/>
<path d="M132.625 43.919C132.394 43.9733 132.09 43.9421 131.726 43.8104C131.961 43.7511 132.256 43.7923 132.625 43.919Z" fill="#0C0E0F"/>
<path d="M203.328 40.4637C203.1 40.4458 202.832 40.3287 202.541 40.0984C202.775 40.1116 203.031 40.2381 203.328 40.4637Z" fill="#0C0E0F"/>
<path d="M205.063 42.273C204.851 42.1824 204.632 41.9809 204.422 41.6584C204.64 41.7456 204.848 41.9539 205.063 42.273Z" fill="#0C0E0F"/>
<path d="M56.4739 126.05C56.6269 125.972 56.8534 125.962 57.1075 126.031C56.9393 126.113 56.7434 126.116 56.4739 126.05Z" fill="#0C0E0F"/>
<path d="M71.1922 59.6023C84.315 59.5951 97.4378 59.5878 110.897 59.5845C114.34 59.56 117.446 59.5316 120.722 59.5438C125.425 59.5844 129.959 59.5844 134.714 59.5844C134.714 64.411 134.714 68.9232 134.677 73.5976C134.653 83.1858 134.665 92.6117 134.678 102.038C134.587 105.787 134.496 109.536 134.236 113.45C132.068 116.068 129.387 116.841 126.249 116.498C125.155 116.378 124.052 116.309 122.964 116.151C119.518 115.652 116.041 115.236 113.166 113.176C123.437 108.157 128.798 100.356 128.712 89.3816C128.631 78.9338 121.298 69.4846 110.594 65.9137C100.456 62.5313 89.0064 65.7715 81.9297 74.0258C75.0124 82.0943 74.0022 94.0611 79.5615 102.765C80.6465 104.463 81.9382 106.042 83.0062 107.704C81.8649 109.045 81.0143 110.516 79.806 111.638C77.0276 114.218 73.4986 113.277 72.2703 109.786C72.0521 109.166 71.6742 108.596 71.3285 107.916C71.2436 107.781 71.2001 107.732 71.1567 107.684C71.1554 106.963 71.1541 106.242 71.1465 105.208C71.1191 96.1726 71.0979 87.4499 71.0768 78.7272C71.1002 77.1911 71.1237 75.6549 71.15 73.7956C71.166 68.8491 71.1791 64.2257 71.1922 59.6023Z" fill="#8CABD9"/>
<path d="M203.148 92.8262C203.168 101.295 203.267 109.766 203.167 118.234C203.133 121.192 200.476 123.227 197.11 123.229C187.714 123.235 178.319 123.196 168.924 123.188C160.456 123.18 151.988 123.19 143.27 123.143C142.824 123.112 142.629 123.13 142.434 123.148C139.225 122.054 137.912 120.257 137.906 116.965C137.902 115.042 137.891 113.119 137.89 110.873C137.922 104.889 137.948 99.2277 138.081 93.4942C138.369 93.0542 138.558 92.6894 138.73 92.3178C139.904 89.7867 141.075 87.2542 142.289 84.8836C142.399 86.7495 142.317 88.4734 142.56 90.155C144.123 101.005 152.796 110.104 163.861 112.597C175.241 115.162 186.89 110.857 193.617 101.672C197.126 96.8814 198.675 91.5336 199.036 85.8011C199.54 86.4708 199.932 87.1069 200.299 87.7556C201.254 89.4428 202.199 91.1356 203.148 92.8262Z" fill="#387E75"/>
<path d="M203.173 92.6644C202.199 91.1356 201.254 89.4428 200.299 87.7556C199.932 87.1069 199.54 86.4708 199.004 85.6458C198.828 85.1694 198.803 84.8762 198.783 84.5826C197.496 65.4681 175.557 53.6776 157.72 62.5449C148.308 67.2235 143.241 74.6981 142.247 84.7222C141.075 87.2542 139.904 89.7867 138.73 92.3178C138.558 92.6894 138.369 93.0542 138.06 93.3294C137.946 80.2759 137.96 67.3152 138.147 54.347C139.814 54.2945 141.308 54.2495 142.97 54.2493C162.369 54.3116 181.6 54.3276 200.832 54.352C201.629 54.353 202.427 54.4316 203.224 54.4741C203.215 67.1503 203.206 79.8265 203.173 92.6644Z" fill="#489F97"/>
<path d="M139.077 43.4181C139.986 42.9123 140.894 42.4065 142.096 41.886C159.606 41.869 176.822 41.8683 194.037 41.8549C194.515 41.8546 194.993 41.7189 195.471 41.6464C196.519 41.6615 197.569 41.6517 198.616 41.6971C200.594 41.7829 202.642 43.1144 202.967 44.9521C203.29 46.7823 203.164 48.6914 203.126 50.5639C203.121 50.7982 202.454 51.0204 201.772 51.2437C182.453 51.2346 163.455 51.2295 144.456 51.23C144.152 51.23 143.848 51.2998 143.375 51.2982C141.884 51.2462 140.556 51.2953 139.242 51.1873C138.758 51.1476 138.309 50.7366 137.879 50.3352C137.899 48.8653 137.883 47.5551 137.867 46.2449C138.147 45.5111 138.427 44.7773 138.821 43.8828C139.03 43.6414 139.078 43.54 139.077 43.4181Z" fill="#499F97"/>
<path d="M71.3699 108.003C71.6741 108.596 72.0521 109.166 72.2703 109.786C73.4985 113.277 77.0276 114.218 79.806 111.638C81.0142 110.516 81.8648 109.045 83.1287 107.723C86.2179 110.284 89.3658 112.382 93.0632 113.717C99.8095 116.152 106.459 115.654 113.071 113.259C116.041 115.236 119.518 115.652 122.964 116.151C124.052 116.309 125.155 116.378 126.249 116.498C129.387 116.841 132.068 116.068 134.177 113.599C135.368 118.665 133.702 122.132 129.086 123.049C128.29 123.111 127.758 123.163 127.225 123.216C127.061 123.199 126.896 123.182 126.477 123.122C122.477 123.124 118.731 123.17 114.985 123.215C102.65 123.237 90.3151 123.234 77.9807 123.303C76.0213 123.314 74.1791 123.032 72.9738 121.558C72.1118 120.504 71.7165 119.104 71.1147 117.559C71.2009 114.174 71.2854 111.089 71.3699 108.003Z" fill="#59739E"/>
<path d="M71.1047 53.1107C71.1059 52.0849 71.1215 51.2057 71.1845 50.3296C71.2997 48.7255 72.1637 47.5867 73.7298 46.7676C76.8896 46.6289 79.9664 46.5391 83.0435 46.5283C93.5762 46.4915 104.109 46.4825 114.969 46.4673C116.434 46.4281 117.573 46.3846 118.711 46.3411C122.3 46.3768 125.889 46.4126 129.788 46.455C132.997 46.8121 134.148 47.8275 134.633 50.652C134.599 52.6689 134.599 54.5234 134.599 56.6253C129.365 56.6253 124.403 56.6253 119.286 56.5812C118.489 56.5662 117.847 56.5953 117.205 56.6244C114.923 56.5947 112.642 56.54 110.361 56.5396C97.9482 56.5369 85.5358 56.55 73.1233 56.5468C72.5159 56.5467 71.9085 56.4451 71.2239 56.1344C71.1217 55.6092 71.0967 55.3404 71.0717 55.0716C71.0945 54.4673 71.1174 53.863 71.1047 53.1107ZM119.631 50.1916C118.644 50.1946 117.652 50.2567 116.671 50.1862C115.357 50.0917 114.735 50.5348 114.721 51.8538C114.708 53.1446 115.237 53.5987 116.597 53.5822C120.792 53.5312 124.988 53.5523 129.183 53.6096C130.481 53.6274 131.178 53.2447 131.148 51.9257C131.122 50.7181 130.66 50.1501 129.254 50.1875C126.172 50.2695 123.085 50.1996 119.631 50.1916ZM91.2378 53.5788C92.9281 53.5991 92.5897 52.3839 92.6289 51.4494C92.6706 50.4545 92.0314 50.1769 91.0738 50.1865C88.5508 50.2116 86.0267 50.2106 83.504 50.1671C82.3072 50.1464 81.6277 50.4996 81.6664 51.7603C81.7027 52.9436 82.1019 53.6118 83.5172 53.5762C85.9772 53.5144 88.4404 53.5724 91.2378 53.5788ZM75.898 50.1481C75.4412 50.4799 74.6571 50.7661 74.5977 51.1531C74.4843 51.8911 74.5612 53.1971 74.9581 53.3542C75.8402 53.7034 77.0112 53.6485 77.9722 53.4148C78.2923 53.337 78.4221 52.2199 78.4815 51.5649C78.6376 49.8434 77.2731 50.1993 75.898 50.1481Z" fill="#8CA8D6"/>
<path d="M143.544 51.337C143.848 51.2998 144.152 51.23 144.456 51.23C163.455 51.2295 182.453 51.2346 201.621 51.2807C202.024 51.6858 202.292 52.0338 202.482 52.4167C202.767 52.9903 202.997 53.5884 203.237 54.3251C202.427 54.4316 201.629 54.353 200.832 54.3519C181.6 54.3276 162.369 54.3116 142.97 54.1207C143.049 53.0772 143.296 52.2071 143.544 51.337Z" fill="#080808"/>
<path d="M137.975 54.3544C137.96 67.3152 137.946 80.2759 137.953 93.4014C137.948 99.2277 137.922 104.889 137.853 110.713C137.496 110.422 136.99 110 136.906 109.512C136.559 107.502 136.401 105.462 136.033 103.457C135.939 102.943 135.332 102.514 134.819 102.042C134.665 92.6117 134.653 83.1858 134.822 73.5913C135.252 73.1556 135.629 72.9263 135.731 72.6154C136.726 69.5803 136.636 66.4586 136.512 63.3302C136.451 61.7829 136.328 60.2049 136.566 58.6885C136.847 56.9065 136.782 55.2758 135.799 53.7087C135.72 53.5826 135.9 53.309 136.023 52.8895C136.767 53.4481 137.371 53.9013 137.975 54.3544Z" fill="#080808"/>
<path d="M70.9358 78.7361C71.0979 87.4499 71.119 96.1726 71.1046 105.058C70.7485 104.896 70.179 104.592 70.1479 104.244C69.9449 101.976 69.8313 99.7001 69.7406 97.425C69.5937 93.7432 69.3653 90.0587 69.4068 86.3777C69.4336 84.0019 69.8671 81.6288 70.1653 79.2599C70.1896 79.0671 70.5764 78.9157 70.9358 78.7361Z" fill="#080808"/>
<path d="M195.361 41.5437C194.993 41.7189 194.515 41.8546 194.037 41.8549C176.821 41.8682 159.606 41.8689 142.221 41.8262C142.537 41.624 143.021 41.3302 143.505 41.3296C160.453 41.3054 177.4 41.3082 194.348 41.3139C194.649 41.314 194.95 41.3968 195.361 41.5437Z" fill="#0C0E0F"/>
<path d="M71.1402 59.4948C71.1791 64.2257 71.166 68.8491 71.1156 73.635C70.7708 73.6542 70.229 73.5533 70.1906 73.3613C69.4777 69.7936 68.0505 66.2728 69.597 62.5566C69.9034 61.8203 69.5153 60.8403 69.5551 59.9772C69.5745 59.5575 69.8422 59.1482 69.9976 58.7341C70.3611 58.9519 70.7247 59.1696 71.1402 59.4948Z" fill="#080808"/>
<path d="M117.196 56.762C117.847 56.5953 118.489 56.5663 119.294 56.7096C120.037 57.2551 120.617 57.6281 121.202 58.004C120.992 58.4882 120.772 58.9957 120.553 59.5032C117.446 59.5316 114.34 59.56 111.065 59.5432C110.73 59.0398 110.564 58.5818 110.309 57.8762C112.122 57.7639 113.851 57.7008 115.568 57.5251C116.125 57.4682 116.648 57.1165 117.196 56.762Z" fill="#080808"/>
<path d="M134.667 50.4896C134.148 47.8275 132.997 46.8121 129.953 46.4053C130.639 45.1975 133.206 45.0683 135.125 45.9112C135.85 46.2299 136.768 46.1515 137.733 46.2495C137.883 47.5551 137.899 48.8653 137.749 50.3572C136.611 50.5224 135.639 50.506 134.667 50.4896Z" fill="#080808"/>
<path d="M71.3285 107.916C71.2855 111.089 71.201 114.174 71.0742 117.421C69.5961 117.437 69.7209 116.374 69.7509 115.47C69.8259 113.207 69.9543 110.943 70.1387 108.685C70.1669 108.34 70.6071 108.025 71.0067 107.69C71.2001 107.732 71.2436 107.781 71.3285 107.916Z" fill="#080808"/>
<path d="M115.093 123.321C118.731 123.17 122.477 123.124 126.355 123.147C125.728 123.334 124.969 123.556 124.21 123.555C121.207 123.55 118.204 123.476 115.093 123.321Z" fill="#080808"/>
<path d="M136.136 123.571C133.692 123.225 135.013 122.35 135.799 121.178C136.354 121.961 136.765 122.541 137.175 123.12C136.877 123.27 136.578 123.42 136.136 123.571Z" fill="#080808"/>
<path d="M118.692 46.2143C117.573 46.3846 116.434 46.4281 115.133 46.4176C115.699 45.3212 117.353 45.198 118.692 46.2143Z" fill="#080808"/>
<path d="M127.304 123.308C127.758 123.163 128.29 123.11 128.952 123.111C128.514 123.242 127.949 123.321 127.304 123.308Z" fill="#080808"/>
<path d="M70.9472 55.0766C71.0967 55.3404 71.1217 55.6092 71.1161 56.0109C70.7829 56.0059 70.4802 55.868 70.1775 55.7302C70.3926 55.514 70.6077 55.2978 70.9472 55.0766Z" fill="#080808"/>
<path d="M138.976 43.3777C139.078 43.54 139.03 43.6413 138.852 43.757C138.56 43.6561 138.349 43.5204 138.139 43.3846C138.384 43.3688 138.629 43.3531 138.976 43.3777Z" fill="#080808"/>
<path d="M142.467 123.222C142.629 123.13 142.824 123.112 143.096 123.161C142.949 123.251 142.725 123.274 142.467 123.222Z" fill="#080808"/>
<path d="M53.6539 39.4173C54.8795 38.0075 56.2805 37.6916 57.8184 38.4782C59.5801 39.3794 60.1509 41.0676 59.188 43.2621C56.0251 43.2639 54.3374 42.0038 53.6539 39.4173Z" fill="#499F97"/>
<path d="M53.532 39.4756C54.3373 42.0038 56.0251 43.2639 59.1324 43.394C57.8901 45.1982 56.0864 45.6566 54.4573 44.6151C52.4841 43.3534 52.0872 41.4276 53.532 39.4756Z" fill="#327068"/>
<path d="M76.2731 30.949C77.2146 29.5549 78.5004 29.7819 79.6056 30.5491C80.866 31.424 81.3591 32.6423 80.0292 34.1336C77.7502 34.1163 76.8929 33.318 76.2731 30.949Z" fill="#41908E"/>
<path d="M76.1492 30.9993C76.8929 33.318 77.7502 34.1163 79.9638 34.245C78.9758 35.5194 77.5953 35.6876 76.3329 34.7016C75.0895 33.7305 74.9729 32.3463 76.1492 30.9993Z" fill="#2D635D"/>
<path d="M56.6174 59.181C57.5642 58.1966 58.6821 58.1441 59.7008 58.9282C60.7364 59.7254 61.0784 60.8077 60.1108 62.0725C58.1384 61.8021 57.0595 60.8106 56.6174 59.181Z" fill="#499C8E"/>
<path d="M56.5028 59.24C57.0595 60.8107 58.1383 61.8021 60.0179 62.159C59.3559 63.6165 58.1467 63.5214 56.9548 62.8203C55.5653 62.0029 55.4204 60.7333 56.5028 59.24Z" fill="#327068"/>
<path d="M98.3626 32.5737C97.1528 32.9629 96.265 32.6266 96.1736 31.5742C96.1204 30.9614 96.5982 30.0959 97.1301 29.7298C97.4338 29.5207 98.5312 29.9196 98.9075 30.3398C99.5588 31.067 99.6354 31.9685 98.3626 32.5737Z" fill="#3D897A"/>
<path d="M113.166 113.176C106.459 115.654 99.8095 116.152 93.0633 113.717C89.3658 112.382 86.2179 110.284 83.2571 107.695C81.9382 106.042 80.6464 104.463 79.5614 102.765C74.0022 94.0611 75.0124 82.0942 81.9297 74.0258C89.0064 65.7715 100.456 62.5313 110.594 65.9136C121.298 69.4846 128.631 78.9338 128.712 89.3816C128.798 100.356 123.437 108.157 113.166 113.176ZM119.704 104.816C120.029 104.469 120.382 104.142 120.675 103.772C123.33 100.416 125.264 96.791 125.316 92.2389C125.32 92.0899 125.324 91.9408 125.503 91.7157C125.473 91.5063 125.443 91.2969 125.444 90.8149C125.656 83.1239 122.706 76.8712 116.004 72.0726C115.193 71.5517 114.421 70.9626 113.564 70.5213C108.664 67.9964 103.508 66.9646 97.6595 68.2216C91.9401 69.2569 87.4649 72.1266 83.8626 76.7049C83.0981 77.9655 82.3336 79.2261 81.3853 80.6675C79.9106 83.8903 79.0039 87.2117 79.3353 91.0095C79.8412 93.4612 79.9819 96.0492 80.9245 98.3378C83.3135 104.138 87.4839 108.445 93.9935 110.788C99.6223 113.143 105.272 112.757 110.846 110.712C114.194 109.483 117.236 107.72 119.704 104.816Z" fill="#080A0A"/>
<path d="M134.633 50.652C135.639 50.506 136.611 50.5224 137.713 50.5169C138.309 50.7366 138.758 51.1476 139.242 51.1873C140.556 51.2953 141.884 51.2461 143.375 51.2981C143.296 52.2071 143.049 53.0772 142.802 54.0759C141.308 54.2495 139.814 54.2945 138.147 54.347C137.371 53.9013 136.767 53.4481 136.023 52.8895C135.9 53.309 135.72 53.5826 135.799 53.7087C136.782 55.2758 136.847 56.9065 136.566 58.6885C136.328 60.2049 136.451 61.7829 136.512 63.3302C136.636 66.4586 136.726 69.5803 135.731 72.6154C135.629 72.9263 135.252 73.1556 134.858 73.429C134.714 68.9231 134.714 64.411 134.714 59.5844C129.959 59.5844 125.425 59.5844 120.722 59.5438C120.772 58.9957 120.992 58.4882 121.202 58.004C120.617 57.6281 120.037 57.255 119.449 56.7536C124.403 56.6253 129.365 56.6253 134.599 56.6253C134.599 54.5234 134.599 52.6689 134.633 50.652Z" fill="#020201"/>
<path d="M142.289 84.8836C143.241 74.6981 148.308 67.2235 157.72 62.5448C175.557 53.6776 197.496 65.4681 198.783 84.5826C198.803 84.8762 198.828 85.1694 198.881 85.618C198.675 91.5336 197.126 96.8814 193.617 101.672C186.89 110.857 175.241 115.162 163.861 112.597C152.796 110.104 144.123 101.005 142.56 90.155C142.318 88.4734 142.399 86.7495 142.289 84.8836ZM145.716 89.2685C145.92 90.3657 146.049 91.4811 146.338 92.5574C149.707 105.084 163.368 112.768 176.512 109.55C189.935 106.264 198.354 92.9458 194.879 80.364C194.436 78.7598 193.495 77.2802 192.655 75.5376C191.048 73.4232 189.729 71.0222 187.779 69.2489C182.295 64.2615 175.685 61.9698 167.715 62.7616C163.425 63.2213 159.463 64.4897 155.775 67.1524C153.938 69.0258 152.101 70.8992 150.012 72.8149C146.24 77.6371 144.804 83.0192 145.716 89.2685Z" fill="#070A0A"/>
<path d="M119.816 50.1917C123.085 50.1996 126.172 50.2695 129.254 50.1875C130.66 50.15 131.121 50.7181 131.148 51.9257C131.178 53.2447 130.481 53.6273 129.183 53.6096C124.988 53.5523 120.792 53.5312 116.597 53.5822C115.237 53.5987 114.708 53.1446 114.721 51.8538C114.735 50.5348 115.357 50.0917 116.671 50.1861C117.652 50.2567 118.644 50.1946 119.816 50.1917Z" fill="#0E1013"/>
<path d="M91.07 53.5795C88.4404 53.5724 85.9772 53.5144 83.5172 53.5762C82.1019 53.6118 81.7027 52.9436 81.6664 51.7603C81.6277 50.4996 82.3072 50.1464 83.504 50.167C86.0267 50.2106 88.5508 50.2116 91.0738 50.1864C92.0314 50.1769 92.6706 50.4545 92.6289 51.4494C92.5897 52.3838 92.9281 53.5991 91.07 53.5795Z" fill="#0F1114"/>
<path d="M76.0613 50.1484C77.2731 50.1993 78.6376 49.8434 78.4815 51.5649C78.4221 52.2199 78.2923 53.337 77.9722 53.4148C77.0111 53.6485 75.8401 53.7033 74.958 53.3542C74.5612 53.1971 74.4842 51.8911 74.5976 51.1531C74.6571 50.7661 75.4411 50.4798 76.0613 50.1484Z" fill="#0F1114"/>
<path d="M84.0623 76.5775C87.465 72.1266 91.9401 69.2569 97.7953 68.3739C96.8461 69.6691 95.7374 70.8079 97.0712 72.4618C84.9999 76.0315 80.8238 89.3583 86.637 98.5432C91.0661 105.541 100.011 108.737 108.086 106.011C115.91 103.371 120.634 96.9197 120.608 89.0231C120.589 83.3607 117.735 79.0612 113.733 75.3202C116.759 75.3047 116.757 75.305 116.121 72.6178C116.095 72.5075 116.127 72.3846 116.132 72.2676C122.706 76.8712 125.656 83.1239 125.339 90.994C125.265 91.3793 125.296 91.5855 125.327 91.7918C125.324 91.9408 125.32 92.0899 125.173 92.3828C124.85 92.7563 124.576 92.9623 124.505 93.2192C123.3 97.6008 120.671 101.184 117.456 104.555C112.037 108.778 106.083 110.899 99.1209 109.806C97.7311 109.588 96.3492 109.324 94.8807 108.988C94.0125 108.565 93.1997 108.284 92.446 107.898C86.0318 104.617 82.5003 99.2618 80.4711 92.8148C80.246 92.0997 79.7962 91.4487 79.4506 90.7679C79.0039 87.2117 79.9106 83.8903 81.6179 80.5829C82.5025 81.1647 83.1545 81.8311 84.0327 82.7286C84.6009 81.8478 85.1791 81.0658 85.6343 80.2236C86.8877 77.9045 86.7062 77.5229 84.0623 76.5775Z" fill="#4BA299"/>
<path d="M116.068 72.1701C116.127 72.3846 116.095 72.5075 116.121 72.6178C116.757 75.305 116.759 75.3047 113.626 75.2787C108.417 72 102.975 71.3086 97.1833 72.394C95.7375 70.8079 96.8462 69.6691 97.9588 68.3772C103.508 66.9646 108.664 67.9964 113.564 70.5213C114.421 70.9625 115.193 71.5517 116.068 72.1701Z" fill="#489D94"/>
<path d="M94.9635 109.082C96.3491 109.324 97.731 109.588 99.1208 109.806C106.083 110.899 112.037 108.778 117.593 104.554C118.39 104.65 118.939 104.797 119.488 104.945C117.236 107.72 114.194 109.484 110.846 110.712C105.272 112.757 99.6222 113.143 93.9197 110.577C94.2184 109.939 94.591 109.51 94.9635 109.082Z" fill="#377A70"/>
<path d="M94.8806 108.988C94.591 109.51 94.2185 109.939 93.8175 110.498C87.4838 108.445 83.3135 104.138 80.9245 98.3379C79.9818 96.0492 79.8411 93.4612 79.3929 90.8887C79.7961 91.4487 80.2459 92.0997 80.471 92.8148C82.5002 99.2619 86.0317 104.617 92.4459 107.898C93.1997 108.284 94.0124 108.565 94.8806 108.988Z" fill="#35726A"/>
<path d="M119.596 104.88C118.939 104.797 118.39 104.65 117.705 104.504C120.671 101.184 123.3 97.6008 124.505 93.2192C124.576 92.9623 124.85 92.7563 125.154 92.4932C125.264 96.791 123.33 100.416 120.675 103.772C120.382 104.142 120.029 104.469 119.596 104.88Z" fill="#306A63"/>
<path d="M83.9624 76.6412C86.7062 77.5229 86.8877 77.9045 85.6343 80.2236C85.1791 81.0658 84.6009 81.8478 84.0327 82.7286C83.1545 81.8311 82.5025 81.1647 81.7098 80.4926C82.3336 79.2261 83.0981 77.9655 83.9624 76.6412Z" fill="#489D94"/>
<path d="M125.415 91.7537C125.296 91.5856 125.265 91.3793 125.323 91.1303C125.443 91.2969 125.473 91.5063 125.415 91.7537Z" fill="#306A63"/>
<path d="M168.027 62.8161C175.685 61.9699 182.295 64.2615 187.779 69.2489C189.729 71.0222 191.048 73.4232 192.629 75.7719C193.061 78.3532 193.852 80.6914 193.921 83.0489C194.193 92.2274 189.918 99.1646 181.507 103.484C173.541 107.575 165.426 107.502 157.667 102.744C152.494 99.573 149.494 94.8882 147.918 89.1679C147.916 86.1704 147.586 83.2797 147.976 80.4801C148.342 77.8607 149.471 75.3379 150.264 72.7726C152.101 70.8992 153.938 69.0258 155.936 67.2654C157.026 68.4826 157.036 70.2959 158.847 70.767C158.539 71.0163 158.288 71.1725 157.897 71.3107C155.72 70.7327 154.896 71.1404 154.124 73.0078C154.464 73.4341 154.765 73.8125 155.029 74.3053C150.545 80.2562 150.087 86.5362 152.535 93.1687C151.975 93.2411 151.572 93.3017 151.112 93.3708C151.216 93.9725 151.287 94.483 151.401 94.9848C151.451 95.2071 151.574 95.4191 151.688 95.6231C152.453 96.9865 153.153 96.9922 154.212 95.7341C156.15 98.4787 158.612 100.511 161.604 101.854C163.256 102.595 165.085 103.057 166.888 103.362C167.415 103.451 168.123 102.568 168.748 102.131C168.298 101.598 167.956 100.87 167.373 100.579C166.463 100.124 165.351 100.053 164.391 99.6675C157.937 97.0776 154.029 91.0828 154.469 84.5265C154.901 78.1055 159.495 72.6801 165.91 71.0157C173.034 69.1674 179.877 71.4968 184.021 77.1848C184.268 77.5226 184.411 78.0746 184.733 78.1862C185.46 78.4383 186.341 78.7012 187.013 78.5051C187.335 78.4111 187.66 77.1135 187.403 76.6589C186.65 75.328 185.729 74.0377 184.651 72.9263C180.574 68.72 175.328 67.1569 169.479 66.9625C170.021 66.0264 170.069 65.3656 169.208 64.6454C168.669 64.1935 168.411 63.4363 168.027 62.8161ZM174.297 74.658C171.016 73.6024 167.87 74.2446 164.77 75.3647C163.804 75.7141 162.837 76.2233 163.361 77.4061C163.819 78.4389 164.784 78.897 165.943 78.3792C169.032 76.9992 172.054 77.0071 175.199 78.3257C175.756 78.5591 177.133 77.9648 177.533 77.3813C178.209 76.395 177.408 75.6575 176.329 75.3112C175.746 75.1245 175.161 74.9458 174.297 74.658Z" fill="#8FAEDC"/>
<path d="M147.904 89.3146C149.494 94.8882 152.494 99.5729 157.667 102.744C165.426 107.502 173.541 107.575 181.507 103.484C189.918 99.1646 194.193 92.2273 193.922 83.0489C193.852 80.6914 193.061 78.3532 192.694 75.8745C193.495 77.2802 194.436 78.7598 194.879 80.364C198.354 92.9458 189.935 106.264 176.513 109.55C163.368 112.768 149.707 105.084 146.338 92.5574C146.049 91.4811 145.92 90.3657 145.869 89.1328C146.649 89.1029 147.276 89.2087 147.904 89.3146Z" fill="#59719B"/>
<path d="M167.871 62.7888C168.411 63.4363 168.669 64.1935 169.209 64.6454C170.069 65.3655 170.021 66.0264 169.367 67.0033C165.5 67.5505 162.073 68.7622 158.906 70.6738C157.037 70.2959 157.026 68.4826 156.066 67.223C159.463 64.4897 163.425 63.2213 167.871 62.7888Z" fill="#8AA9D5"/>
<path d="M147.918 89.1679C147.276 89.2087 146.649 89.1029 145.881 88.9832C144.804 83.0192 146.24 77.6371 150.138 72.7937C149.471 75.3379 148.342 77.8607 147.976 80.48C147.586 83.2796 147.916 86.1703 147.918 89.1679Z" fill="#536991"/>
<path d="M97.0712 72.4618C102.975 71.3086 108.417 72 113.458 75.3156C117.735 79.0612 120.589 83.3607 120.608 89.0231C120.634 96.9197 115.91 103.371 108.086 106.011C100.011 108.737 91.0661 105.541 86.637 98.5432C80.8237 89.3583 84.9999 76.0315 97.0712 72.4618ZM110.861 101.135C111.341 100.765 111.836 100.412 112.299 100.024C117.124 95.9767 118.624 89.1634 115.967 83.4C113.488 78.0232 107.127 74.4082 101.184 74.998C94.6625 75.645 89.5486 79.6649 87.9127 85.4298C86.2611 91.2497 88.5593 97.5438 93.6404 101.116C98.6489 104.638 104.955 104.699 110.861 101.135Z" fill="#090B0B"/>
<path d="M158.847 70.767C162.073 68.7622 165.5 67.5505 169.355 67.1396C175.328 67.1569 180.574 68.72 184.651 72.9263C185.729 74.0376 186.65 75.328 187.403 76.6589C187.66 77.1134 187.335 78.411 187.013 78.5051C186.341 78.7011 185.46 78.4383 184.733 78.1862C184.412 78.0746 184.268 77.5226 184.022 77.1847C179.877 71.4967 173.034 69.1673 165.91 71.0157C159.495 72.6801 154.901 78.1054 154.469 84.5265C154.029 91.0828 157.937 97.0776 164.391 99.6674C165.351 100.053 166.463 100.124 167.373 100.579C167.956 100.87 168.298 101.598 168.749 102.131C168.123 102.568 167.415 103.451 166.888 103.362C165.085 103.057 163.256 102.595 161.604 101.854C158.612 100.511 156.15 98.4786 154.189 95.6322C153.609 94.6819 153.151 93.9194 152.693 93.1568C150.087 86.5361 150.545 80.2562 155.14 74.2512C156.205 73.1647 157.121 72.2467 158.038 71.3286C158.288 71.1724 158.539 71.0163 158.847 70.767Z" fill="#0A0B0D"/>
<path d="M174.437 74.7107C175.161 74.9458 175.746 75.1245 176.329 75.3112C177.408 75.6575 178.209 76.3949 177.533 77.3813C177.133 77.9648 175.756 78.5591 175.199 78.3257C172.054 77.0071 169.032 76.9991 165.943 78.3792C164.784 78.897 163.819 78.4389 163.361 77.4061C162.837 76.2233 163.804 75.714 164.77 75.3646C167.87 74.2446 171.016 73.6023 174.437 74.7107Z" fill="#F7F9FD"/>
<path d="M152.535 93.1687C153.151 93.9194 153.609 94.682 154.09 95.5464C153.153 96.9922 152.453 96.9864 151.688 95.6231C151.574 95.419 151.451 95.2071 151.4 94.9848C151.287 94.483 151.216 93.9725 151.112 93.3707C151.572 93.3016 151.975 93.2411 152.535 93.1687Z" fill="#8AA9D5"/>
<path d="M157.897 71.3107C157.121 72.2467 156.205 73.1647 155.177 74.1369C154.765 73.8125 154.464 73.434 154.124 73.0077C154.896 71.1403 155.72 70.7326 157.897 71.3107Z" fill="#8AA9D5"/>
<path d="M110.75 101.208C104.955 104.699 98.6489 104.638 93.6403 101.116C88.5593 97.5438 86.2611 91.2497 87.9126 85.4298C89.5486 79.6649 94.6625 75.6451 101.184 74.998C107.127 74.4082 113.488 78.0232 115.967 83.4C118.624 89.1634 117.124 95.9767 112.299 100.024C111.836 100.412 111.341 100.765 110.75 101.208ZM108.317 81.4139C109.435 80.3657 109.359 79.3999 107.91 78.8022C104.021 77.1968 100.112 77.4513 96.3004 79.0434C95.8191 79.2444 95.2591 80.2637 95.42 80.6355C95.6588 81.1871 96.4659 81.589 97.1185 81.8725C97.4181 82.0026 97.9408 81.7371 98.3358 81.5876C101.029 80.5687 103.688 80.4571 106.382 81.6501C106.845 81.8554 107.523 81.6228 108.317 81.4139Z" fill="#A2BDE4"/>
<path d="M108.21 81.5032C107.523 81.6228 106.845 81.8554 106.382 81.6501C103.688 80.4571 101.029 80.5687 98.3359 81.5876C97.9408 81.7371 97.4182 82.0026 97.1186 81.8724C96.466 81.589 95.6589 81.1871 95.4201 80.6355C95.2591 80.2637 95.8192 79.2444 96.3004 79.0434C100.112 77.4513 104.021 77.1968 107.911 78.8022C109.359 79.3999 109.435 80.3657 108.21 81.5032Z" fill="#F8FBFD"/>
</svg>
